<svg width="195" height="24" viewBox="0 0 195 24" fill="none" xmlns="http://www.w3.org/2000/svg">
<path d="M31.0061 3.40744V5.27421C31.0061 5.6775 31.0475 5.92797 31.1302 6.02564C31.2424 6.16427 31.4123 6.23359 31.6398 6.23359H31.8702V6.40845H29.2957V6.23359H29.5216C29.7757 6.23359 29.9574 6.14537 30.0667 5.96893C30.1258 5.87126 30.1553 5.63969 30.1553 5.27421V1.13424C30.1553 0.730954 30.1154 0.480476 30.0357 0.382806C29.9205 0.244177 29.7491 0.174862 29.5216 0.174862H29.2957V0H31.498C32.0356 0 32.4596 0.0598626 32.7697 0.179588C33.0799 0.296162 33.3414 0.494654 33.5541 0.775063C33.7668 1.05547 33.8731 1.38787 33.8731 1.77225C33.8731 2.29526 33.7106 2.7206 33.3857 3.04827C33.0637 3.37594 32.6073 3.53977 32.0164 3.53977C31.8717 3.53977 31.7151 3.52874 31.5467 3.50669C31.3783 3.48463 31.1981 3.45155 31.0061 3.40744ZM31.0061 3.13806C31.1627 3.16957 31.3015 3.1932 31.4226 3.20895C31.5438 3.2247 31.6472 3.23258 31.7328 3.23258C32.0401 3.23258 32.3045 3.10655 32.526 2.8545C32.7505 2.5993 32.8628 2.27005 32.8628 1.86677C32.8628 1.58951 32.8096 1.33273 32.7033 1.09643C32.5969 0.856981 32.4463 0.678968 32.2513 0.562394C32.0563 0.442668 31.8348 0.382806 31.5866 0.382806C31.4359 0.382806 31.2424 0.412737 31.0061 0.4726V3.13806Z" fill="black"/>
<path d="M177.211 0C178.06 0 178.795 0.346054 179.416 1.03816C180.04 1.72683 180.352 2.58766 180.352 3.62065C180.352 4.68464 180.038 5.56785 179.411 6.27029C178.784 6.97272 178.024 7.32394 177.133 7.32394C176.233 7.32394 175.475 6.98133 174.86 6.29611C174.249 5.61089 173.944 4.72424 173.944 3.63615C173.944 2.52395 174.297 1.61664 175.005 0.914202C175.62 0.304734 176.355 0 177.211 0ZM177.119 0.377044C176.533 0.377044 176.064 0.609468 175.71 1.07432C175.269 1.65279 175.049 2.49985 175.049 3.61549C175.049 4.75867 175.277 5.63844 175.734 6.25479C176.085 6.72308 176.548 6.95723 177.124 6.95723C177.738 6.95723 178.245 6.7007 178.644 6.18765C179.046 5.67459 179.247 4.86541 179.247 3.76011C179.247 2.56183 179.027 1.66829 178.586 1.07948C178.232 0.611189 177.743 0.377044 177.119 0.377044Z" fill="black"/>
<path d="M187.566 0L187.752 2.21061H187.566C187.378 1.65968 187.135 1.24476 186.838 0.965851C186.409 0.562983 185.858 0.361548 185.185 0.361548C184.267 0.361548 183.569 0.714489 183.091 1.42037C182.69 2.01606 182.49 2.72539 182.49 3.54834C182.49 4.21635 182.623 4.82581 182.889 5.37675C183.154 5.92768 183.502 6.33227 183.93 6.59052C184.363 6.84532 184.806 6.97272 185.259 6.97272C185.525 6.97272 185.782 6.94001 186.03 6.87459C186.278 6.80917 186.517 6.71275 186.747 6.58535V4.56068C186.747 4.20946 186.719 3.98048 186.662 3.87374C186.609 3.76355 186.524 3.68091 186.407 3.62582C186.294 3.56728 186.092 3.53801 185.801 3.53801V3.34174H188.592V3.53801H188.459C188.182 3.53801 187.993 3.62754 187.89 3.80659C187.819 3.93399 187.784 4.18536 187.784 4.56068V6.70415C187.376 6.91763 186.974 7.0743 186.577 7.17416C186.18 7.27402 185.739 7.32394 185.254 7.32394C183.861 7.32394 182.804 6.89009 182.081 6.02237C181.539 5.37158 181.268 4.62094 181.268 3.77044C181.268 3.15408 181.42 2.56355 181.725 1.99885C182.086 1.3274 182.582 0.810902 183.213 0.449353C183.741 0.149784 184.364 0 185.084 0C185.346 0 185.583 0.0206598 185.796 0.0619797C186.012 0.1033 186.317 0.194548 186.71 0.335724C186.908 0.408033 187.041 0.444188 187.109 0.444188C187.176 0.444188 187.233 0.41492 187.279 0.356384C187.328 0.294404 187.358 0.175609 187.369 0H187.566Z" fill="black"/>
<path d="M3.51498 16.4074L1.82081 12.7006V15.644C1.82081 15.9147 1.84991 16.0836 1.90811 16.1508C1.98786 16.2417 2.11395 16.2872 2.28638 16.2872H2.44158V16.4074H0.915527V16.2872H1.07072C1.25609 16.2872 1.38757 16.2309 1.46516 16.1183C1.51258 16.049 1.53629 15.8909 1.53629 15.644V12.7656C1.53629 12.5707 1.51474 12.4299 1.47163 12.3433C1.44145 12.2804 1.38541 12.2285 1.30351 12.1873C1.22375 12.144 1.09443 12.1223 0.915527 12.1223V12.0021H2.15706L3.74777 15.449L5.31262 12.0021H6.55415V12.1223H6.40219C6.21467 12.1223 6.08211 12.1787 6.00451 12.2913C5.95709 12.3606 5.93338 12.5187 5.93338 12.7656V15.644C5.93338 15.9147 5.96356 16.0836 6.02391 16.1508C6.10366 16.2417 6.22975 16.2872 6.40219 16.2872H6.55415V16.4074H4.69185V16.2872H4.84704C5.03456 16.2872 5.16605 16.2309 5.24149 16.1183C5.28891 16.049 5.31262 15.8909 5.31262 15.644V12.7006L3.62168 16.4074H3.51498Z" fill="black"/>
<path d="M9.72587 14.9325H8.02847L7.73102 15.6277C7.65773 15.7988 7.62109 15.9266 7.62109 16.0111C7.62109 16.0782 7.65234 16.1378 7.71485 16.1898C7.77951 16.2396 7.91746 16.2721 8.12869 16.2872V16.4074H6.74814V16.2872C6.93135 16.2547 7.0499 16.2125 7.10378 16.1605C7.21371 16.0566 7.33549 15.8454 7.46913 15.527L9.01134 11.9014H9.1245L10.6506 15.566C10.7734 15.8606 10.8844 16.0522 10.9836 16.141C11.0849 16.2277 11.225 16.2764 11.4039 16.2872V16.4074H9.67414V16.2872C9.84873 16.2786 9.9662 16.2493 10.0266 16.1995C10.0891 16.1497 10.1203 16.089 10.1203 16.0176C10.1203 15.9223 10.0772 15.7718 9.99099 15.566L9.72587 14.9325ZM9.63534 14.6921L8.89172 12.9118L8.12869 14.6921H9.63534Z" fill="black"/>
<path d="M11.3942 12.0021H12.584L15.2643 15.3061V12.7656C15.2643 12.4949 15.2341 12.3259 15.1737 12.2588C15.094 12.1678 14.9679 12.1223 14.7955 12.1223H14.6435V12.0021H16.1695V12.1223H16.0144C15.829 12.1223 15.6975 12.1787 15.6199 12.2913C15.5725 12.3606 15.5488 12.5187 15.5488 12.7656V16.4789H15.4324L12.5419 12.9313V15.644C12.5419 15.9147 12.571 16.0836 12.6292 16.1508C12.7111 16.2417 12.8372 16.2872 13.0075 16.2872H13.1627V16.4074H11.6367V16.2872H11.7886C11.9761 16.2872 12.1087 16.2309 12.1863 16.1183C12.2337 16.049 12.2574 15.8909 12.2574 15.644V12.5804C12.1303 12.431 12.0333 12.3324 11.9664 12.2848C11.9018 12.2371 11.8059 12.1927 11.6787 12.1516C11.6162 12.1321 11.5213 12.1223 11.3942 12.1223V12.0021Z" fill="black"/>
<path d="M18.3099 16.2872V16.4074H16.4314V16.2872H16.5866C16.7677 16.2872 16.8992 16.2342 16.9811 16.128C17.0328 16.0587 17.0587 15.892 17.0587 15.6277V12.7818C17.0587 12.5588 17.0447 12.4115 17.0166 12.34C16.9951 12.2859 16.9509 12.2393 16.8841 12.2003C16.7892 12.1483 16.6901 12.1223 16.5866 12.1223H16.4314V12.0021H18.3099V12.1223H18.1515C17.9726 12.1223 17.8422 12.1754 17.7603 12.2815C17.7064 12.3508 17.6794 12.5176 17.6794 12.7818V15.6277C17.6794 15.8508 17.6934 15.9981 17.7215 16.0696C17.743 16.1237 17.7883 16.1703 17.8573 16.2092C17.9499 16.2612 18.048 16.2872 18.1515 16.2872H18.3099Z" fill="black"/>
<path d="M23.2976 14.9806H21.4982L21.1828 15.6868C21.1051 15.8606 21.0663 15.9905 21.0663 16.0763C21.0663 16.1445 21.0994 16.205 21.1657 16.2578C21.2343 16.3084 21.3805 16.3414 21.6044 16.3568V16.4789H20.1409V16.3568C20.3351 16.3238 20.4608 16.2809 20.5179 16.2281C20.6344 16.1225 20.7635 15.9079 20.9052 15.5845L22.5401 11.9014H22.6601L24.2779 15.6241C24.4081 15.9233 24.5258 16.1181 24.6309 16.2083C24.7383 16.2963 24.8869 16.3458 25.0765 16.3568V16.4789H23.2428V16.3568C23.4279 16.348 23.5524 16.3183 23.6164 16.2677C23.6826 16.2171 23.7158 16.1555 23.7158 16.0829C23.7158 15.9861 23.6701 15.8331 23.5787 15.6241L23.2976 14.9806ZM23.2017 14.7364L22.4133 12.9278L21.6044 14.7364H23.2017Z" fill="black"/>
<path d="M29.1827 15.2413L29.2958 15.2644L28.8982 16.4789H25.2993V16.3568H25.4741C25.6706 16.3568 25.8111 16.2952 25.8957 16.172C25.9437 16.1016 25.9677 15.9387 25.9677 15.6835V12.7958C25.9677 12.5164 25.9357 12.3415 25.8717 12.2711C25.7826 12.1743 25.6501 12.1258 25.4741 12.1258H25.2993V12.0037H27.4038V12.1258C27.157 12.1236 26.9834 12.1456 26.8828 12.1919C26.7846 12.2381 26.7172 12.2964 26.6806 12.3668C26.644 12.4372 26.6258 12.6055 26.6258 12.8717V15.6835C26.6258 15.8661 26.644 15.9916 26.6806 16.0598C26.708 16.106 26.7503 16.1401 26.8074 16.1621C26.8645 16.1841 27.0428 16.1951 27.3421 16.1951H27.6814C28.0379 16.1951 28.2881 16.1698 28.4321 16.1192C28.576 16.0686 28.7074 15.9795 28.8262 15.8518C28.945 15.722 29.0639 15.5185 29.1827 15.2413Z" fill="black"/>
<path d="M4.24122 7.20959L1.47704 1.2787V5.98806C1.47704 6.42123 1.52452 6.69152 1.61947 6.79895C1.74959 6.94449 1.95532 7.01726 2.23666 7.01726H2.48987V7.20959H0V7.01726H0.253207C0.555649 7.01726 0.770171 6.92717 0.896775 6.74697C0.974143 6.63608 1.01283 6.38311 1.01283 5.98806V1.38266C1.01283 1.07078 0.97766 0.845537 0.907325 0.706924C0.85809 0.60643 0.766654 0.523263 0.633017 0.457422C0.502897 0.388115 0.291891 0.353462 0 0.353462V0.161137H2.02566L4.62103 5.67619L7.1742 0.161137H9.19985V0.353462H8.95192C8.64596 0.353462 8.42968 0.44356 8.30308 0.623757C8.22571 0.734647 8.18703 0.987615 8.18703 1.38266V5.98806C8.18703 6.42123 8.23626 6.69152 8.33473 6.79895C8.46485 6.94449 8.67058 7.01726 8.95192 7.01726H9.19985V7.20959H6.16137V7.01726H6.41458C6.72053 7.01726 6.93506 6.92717 7.05814 6.74697C7.13551 6.63608 7.1742 6.38311 7.1742 5.98806V1.2787L4.4153 7.20959H4.24122Z" fill="black"/>
<path d="M14.3748 4.84971H11.6053L11.12 5.96207C11.0004 6.23583 10.9407 6.44029 10.9407 6.57544C10.9407 6.68286 10.9916 6.77816 11.0936 6.86132C11.1991 6.94103 11.4242 6.99301 11.7688 7.01726V7.20959H9.51636V7.01726C9.81529 6.96528 10.0087 6.89771 10.0966 6.81454C10.276 6.64821 10.4747 6.31034 10.6927 5.80094L13.209 0H13.3936L15.8835 5.86331C16.0839 6.3346 16.265 6.64128 16.4268 6.78336C16.5921 6.92197 16.8207 6.99994 17.1126 7.01726V7.20959H14.2904V7.01726C14.5752 7.0034 14.7669 6.95662 14.8654 6.87692C14.9673 6.79722 15.0183 6.70019 15.0183 6.58583C15.0183 6.43336 14.948 6.19252 14.8073 5.86331L14.3748 4.84971ZM14.2271 4.46506L13.0138 1.61657L11.7688 4.46506H14.2271Z" fill="black"/>
<path d="M17.0967 0.161137H19.038L23.4111 5.44748V1.38266C23.4111 0.949496 23.3619 0.679202 23.2634 0.571777C23.1333 0.426234 22.9275 0.353462 22.6462 0.353462H22.3983V0.161137H24.8881V0.353462H24.6349C24.3325 0.353462 24.118 0.44356 23.9914 0.623757C23.914 0.734647 23.8753 0.987615 23.8753 1.38266V7.32394H23.6854L18.9694 1.64776V5.98806C18.9694 6.42123 19.0169 6.69152 19.1119 6.79895C19.2455 6.94449 19.4512 7.01726 19.729 7.01726H19.9822V7.20959H17.4924V7.01726H17.7403C18.0463 7.01726 18.2626 6.92717 18.3892 6.74697C18.4665 6.63608 18.5052 6.38311 18.5052 5.98806V1.08638C18.2977 0.84727 18.1395 0.689598 18.0304 0.613361C17.9249 0.537124 17.7684 0.466085 17.561 0.400244C17.459 0.369056 17.3042 0.353462 17.0967 0.353462V0.161137Z" fill="black"/>
<path d="M28.3803 7.01726V7.20959H25.3154V7.01726H25.5686C25.864 7.01726 26.0786 6.93236 26.2122 6.76256C26.2966 6.65167 26.3388 6.38484 26.3388 5.96207V1.40865C26.3388 1.05172 26.3159 0.816082 26.2702 0.701726C26.2351 0.615093 26.163 0.540589 26.0539 0.478213C25.8992 0.395046 25.7374 0.353462 25.5686 0.353462H25.3154V0.161137H28.3803V0.353462H28.1218C27.8299 0.353462 27.6171 0.438362 27.4835 0.608163C27.3956 0.719053 27.3516 0.985882 27.3516 1.40865V5.96207C27.3516 6.319 27.3745 6.55464 27.4202 6.669C27.4554 6.75563 27.5292 6.83014 27.6418 6.89251C27.793 6.97568 27.953 7.01726 28.1218 7.01726H28.3803Z" fill="black"/>
<path d="M37.7626 4.81553H35.0237L34.5437 5.92006C34.4255 6.19189 34.3663 6.3949 34.3663 6.5291C34.3663 6.63577 34.4168 6.73039 34.5176 6.81297C34.622 6.89211 34.8446 6.94373 35.1854 6.96781V7.15878H32.9578V6.96781C33.2534 6.9162 33.4447 6.8491 33.5316 6.76652C33.709 6.60136 33.9055 6.26587 34.1211 5.76006L36.6096 0H36.7922L39.2546 5.82199C39.4529 6.28996 39.632 6.59447 39.792 6.73555C39.9554 6.87319 40.1815 6.95061 40.4702 6.96781V7.15878H37.6791V6.96781C37.9608 6.95405 38.1504 6.9076 38.2478 6.82846C38.3486 6.74932 38.399 6.65297 38.399 6.53942C38.399 6.38802 38.3295 6.14888 38.1904 5.82199L37.7626 4.81553ZM37.6165 4.43359L36.4166 1.60518L35.1854 4.43359H37.6165Z" fill="black"/>
<path d="M46.7201 5.22328L46.8922 5.25941L46.2871 7.15878H40.8093V6.96781H41.0753C41.3744 6.96781 41.5883 6.87147 41.717 6.67878C41.7901 6.56867 41.8266 6.31404 41.8266 5.9149V1.39872C41.8266 0.96173 41.7779 0.688179 41.6805 0.57807C41.5449 0.426671 41.3431 0.350971 41.0753 0.350971H40.8093V0.160002H44.0125V0.350971C43.6369 0.34753 43.3725 0.381939 43.2195 0.454198C43.07 0.526457 42.9674 0.61764 42.9117 0.727749C42.8561 0.837858 42.8282 1.10109 42.8282 1.51743V5.9149C42.8282 6.20049 42.8561 6.39662 42.9117 6.50329C42.9534 6.57555 43.0178 6.62888 43.1047 6.66329C43.1917 6.6977 43.463 6.71491 43.9186 6.71491H44.4351C44.9776 6.71491 45.3585 6.67534 45.5776 6.59619C45.7967 6.51705 45.9967 6.3777 46.1775 6.17813C46.3584 5.97511 46.5392 5.65683 46.7201 5.22328Z" fill="black"/>
<path d="M52.6987 6.96781V7.15878H49.6677V6.96781H49.9181C50.2102 6.96781 50.4224 6.88351 50.5545 6.71491C50.638 6.6048 50.6798 6.33985 50.6798 5.92006V1.39872C50.6798 1.04431 50.6571 0.810331 50.6119 0.696781C50.5772 0.610759 50.5059 0.536779 50.398 0.474843C50.245 0.392262 50.085 0.350971 49.9181 0.350971H49.6677V0.160002H52.6987V0.350971H52.4431C52.1544 0.350971 51.944 0.435273 51.8118 0.603877C51.7249 0.713986 51.6814 0.978934 51.6814 1.39872V5.92006C51.6814 6.27447 51.704 6.50845 51.7492 6.622C51.784 6.70802 51.857 6.782 51.9683 6.84394C52.1179 6.92652 52.2761 6.96781 52.4431 6.96781H52.6987Z" fill="black"/>
<path d="M52.8187 0.160002H54.7385L59.0634 5.40909V1.37292C59.0634 0.942805 59.0147 0.674415 58.9173 0.567748C58.7886 0.42323 58.5852 0.350971 58.3069 0.350971H58.0617V0.160002H60.5241V0.350971H60.2737C59.9746 0.350971 59.7625 0.440434 59.6373 0.619361C59.5607 0.72947 59.5225 0.980655 59.5225 1.37292V7.27233H59.3347L54.6707 1.63615V5.94587C54.6707 6.37598 54.7177 6.64437 54.8116 6.75104C54.9437 6.89555 55.1472 6.96781 55.422 6.96781H55.6724V7.15878H53.21V6.96781H53.4552C53.7578 6.96781 53.9717 6.87835 54.0969 6.69942C54.1734 6.58931 54.2116 6.33813 54.2116 5.94587V1.07872C54.0064 0.841299 53.8499 0.684738 53.7421 0.609038C53.6378 0.533339 53.483 0.4628 53.2778 0.397423C53.1769 0.366455 53.0239 0.350971 52.8187 0.350971V0.160002Z" fill="black"/>
<path d="M65.5794 0V2.42067H65.3863C65.3237 1.95615 65.2107 1.58625 65.0472 1.31098C64.8873 1.03571 64.6577 0.817212 64.3586 0.65549C64.0595 0.493768 63.75 0.412907 63.43 0.412907C63.0683 0.412907 62.7692 0.523016 62.5327 0.743233C62.2962 0.96001 62.1779 1.20775 62.1779 1.48647C62.1779 1.6998 62.2527 1.89421 62.4022 2.0697C62.6179 2.32777 63.1309 2.67185 63.9412 3.10197C64.6021 3.45294 65.0525 3.72305 65.2924 3.9123C65.5359 4.09811 65.722 4.31832 65.8507 4.57295C65.9828 4.82757 66.0489 5.09424 66.0489 5.37296C66.0489 5.90285 65.8402 6.36049 65.4229 6.74587C65.009 7.12781 64.4751 7.31878 63.8213 7.31878C63.6161 7.31878 63.423 7.3033 63.2422 7.27233C63.1344 7.25513 62.91 7.19319 62.5692 7.08652C62.2318 6.97641 62.0179 6.92136 61.9275 6.92136C61.8406 6.92136 61.771 6.94717 61.7188 6.99878C61.6701 7.05039 61.6336 7.15706 61.6093 7.31878H61.4162V4.91876H61.6093C61.6997 5.42113 61.8214 5.79791 61.9745 6.04909C62.1275 6.29684 62.3605 6.50329 62.6735 6.66845C62.99 6.83362 63.3361 6.9162 63.7117 6.9162C64.1465 6.9162 64.489 6.80265 64.7394 6.57555C64.9933 6.34845 65.1203 6.08006 65.1203 5.77038C65.1203 5.59834 65.0716 5.42457 64.9742 5.24908C64.8803 5.0736 64.7325 4.91016 64.5308 4.75876C64.3951 4.65553 64.0247 4.43703 63.4196 4.10327C62.8144 3.76606 62.3831 3.49767 62.1257 3.2981C61.8719 3.09853 61.6788 2.87831 61.5467 2.63745C61.4145 2.39658 61.3484 2.13163 61.3484 1.8426C61.3484 1.34023 61.5432 0.908396 61.9327 0.547102C62.3223 0.182367 62.8179 0 63.4196 0C63.7952 0 64.1934 0.0911837 64.6142 0.273551C64.809 0.359574 64.9464 0.402585 65.0264 0.402585C65.1168 0.402585 65.1898 0.376778 65.2455 0.325164C65.3046 0.27011 65.3516 0.161722 65.3863 0H65.5794Z" fill="black"/>
<path d="M72.8101 0.160002L72.8883 1.80131H72.6901C72.6518 1.51227 72.5997 1.30582 72.5336 1.18195C72.4258 0.982375 72.2814 0.836137 72.1006 0.743233C71.9232 0.646888 71.6884 0.598716 71.3963 0.598716H70.3998V5.94587C70.3998 6.37598 70.4468 6.64437 70.5407 6.75104C70.6729 6.89555 70.8763 6.96781 71.1511 6.96781H71.3963V7.15878H68.3965V6.96781H68.6469C68.946 6.96781 69.1582 6.87835 69.2834 6.69942C69.3599 6.58931 69.3982 6.33813 69.3982 5.94587V0.598716H68.5478C68.2174 0.598716 67.9827 0.622802 67.8435 0.670974C67.6627 0.736351 67.5079 0.861944 67.3792 1.04775C67.2505 1.23356 67.174 1.48475 67.1497 1.80131H66.9514L67.0349 0.160002H72.8101Z" fill="black"/>
<path d="M76.4567 6.96781V7.15878H73.4257V6.96781H73.6761C73.9682 6.96781 74.1804 6.88351 74.3125 6.71491C74.396 6.6048 74.4378 6.33985 74.4378 5.92006V1.39872C74.4378 1.04431 74.4151 0.810331 74.3699 0.696781C74.3352 0.610759 74.2639 0.536779 74.156 0.474843C74.003 0.392262 73.843 0.350971 73.6761 0.350971H73.4257V0.160002H76.4567V0.350971H76.2011C75.9124 0.350971 75.702 0.435273 75.5698 0.603877C75.4829 0.713986 75.4394 0.978934 75.4394 1.39872V5.92006C75.4394 6.27447 75.462 6.50845 75.5072 6.622C75.542 6.70802 75.615 6.782 75.7263 6.84394C75.8759 6.92652 76.0341 6.96781 76.2011 6.96781H76.4567Z" fill="black"/>
<path d="M82.8997 0.160002L82.9779 1.80131H82.7797C82.7414 1.51227 82.6892 1.30582 82.6232 1.18195C82.5153 0.982375 82.371 0.836137 82.1902 0.743233C82.0128 0.646888 81.778 0.598716 81.4859 0.598716H80.4894V5.94587C80.4894 6.37598 80.5364 6.64437 80.6303 6.75104C80.7624 6.89555 80.9659 6.96781 81.2407 6.96781H81.4859V7.15878H78.4861V6.96781H78.7365C79.0356 6.96781 79.2478 6.87835 79.373 6.69942C79.4495 6.58931 79.4878 6.33813 79.4878 5.94587V0.598716H78.6374C78.307 0.598716 78.0722 0.622802 77.9331 0.670974C77.7523 0.736351 77.5975 0.861944 77.4688 1.04775C77.3401 1.23356 77.2636 1.48475 77.2393 1.80131H77.041L77.1245 0.160002H82.8997Z" fill="black"/>
<path d="M88.3462 0.350971V0.160002H90.8503V0.350971H90.5842C90.306 0.350971 90.0921 0.466241 89.9425 0.696781C89.8695 0.803449 89.833 1.05119 89.833 1.44001V4.27875C89.833 4.9807 89.7617 5.52608 89.6191 5.9149C89.48 6.30028 89.2035 6.63232 88.7896 6.91104C88.3792 7.18631 87.8192 7.32394 87.1097 7.32394C86.3376 7.32394 85.7516 7.19147 85.3516 6.92652C84.9517 6.66157 84.6682 6.30544 84.5013 5.85812C84.39 5.55188 84.3343 4.97725 84.3343 4.13423V1.39872C84.3343 0.968612 84.2735 0.686458 84.1517 0.552263C84.0335 0.418069 83.8404 0.350971 83.5726 0.350971H83.3066V0.160002H86.3637V0.350971H86.0924C85.8003 0.350971 85.5916 0.442155 85.4664 0.624522C85.3794 0.748394 85.336 1.00646 85.336 1.39872V4.44908C85.336 4.72091 85.3603 5.03231 85.409 5.38328C85.4612 5.73425 85.5533 6.0078 85.6855 6.20393C85.8177 6.40006 86.0072 6.56179 86.2542 6.6891C86.5046 6.81641 86.8106 6.88007 87.1723 6.88007C87.6349 6.88007 88.0488 6.78028 88.414 6.58071C88.7792 6.38114 89.0278 6.12651 89.16 5.81683C89.2956 5.50371 89.3635 4.97553 89.3635 4.2323V1.39872C89.3635 0.96173 89.3148 0.688179 89.2174 0.57807C89.0817 0.426671 88.88 0.350971 88.6122 0.350971H88.3462Z" fill="black"/>
<path d="M97.1524 0.160002L97.2306 1.80131H97.0324C96.9941 1.51227 96.942 1.30582 96.8759 1.18195C96.7681 0.982375 96.6237 0.836137 96.4429 0.743233C96.2655 0.646888 96.0307 0.598716 95.7386 0.598716H94.7421V5.94587C94.7421 6.37598 94.7891 6.64437 94.883 6.75104C95.0152 6.89555 95.2186 6.96781 95.4934 6.96781H95.7386V7.15878H92.7388V6.96781H92.9892C93.2883 6.96781 93.5005 6.87835 93.6257 6.69942C93.7022 6.58931 93.7405 6.33813 93.7405 5.94587V0.598716H92.8901C92.5597 0.598716 92.325 0.622802 92.1858 0.670974C92.005 0.736351 91.8502 0.861944 91.7215 1.04775C91.5928 1.23356 91.5163 1.48475 91.492 1.80131H91.2937L91.3772 0.160002H97.1524Z" fill="black"/>
<path d="M99.7348 0.541941V3.30842H101.289C101.693 3.30842 101.962 3.2482 102.098 3.12777C102.279 2.96949 102.38 2.69078 102.401 2.29164H102.594V4.72779H102.401C102.352 4.38714 102.303 4.16864 102.255 4.0723C102.192 3.95187 102.089 3.85724 101.947 3.78842C101.804 3.71961 101.585 3.6852 101.289 3.6852H99.7348V5.99232C99.7348 6.302 99.7487 6.49125 99.7765 6.56007C99.8043 6.62544 99.853 6.67878 99.9226 6.72007C99.9921 6.75792 100.124 6.77684 100.319 6.77684H101.519C101.919 6.77684 102.209 6.74932 102.39 6.69426C102.571 6.63921 102.745 6.53082 102.912 6.3691C103.128 6.15576 103.348 5.83404 103.574 5.40392H103.783L103.173 7.15878H97.721V6.96781H97.9714C98.1384 6.96781 98.2966 6.92824 98.4462 6.8491C98.5575 6.79405 98.6322 6.71147 98.6705 6.60136C98.7122 6.49125 98.7331 6.26587 98.7331 5.92522V1.37808C98.7331 0.934203 98.6879 0.660652 98.5975 0.557425C98.4723 0.419789 98.2636 0.350971 97.9714 0.350971H97.721V0.160002H103.173L103.251 1.69292H103.048C102.974 1.32474 102.893 1.07184 102.802 0.934203C102.715 0.796567 102.585 0.69162 102.411 0.619361C102.272 0.567748 102.027 0.541941 101.675 0.541941H99.7348Z" fill="black"/>
<path d="M110.612 0C111.53 0 112.325 0.34581 112.996 1.03743C113.671 1.72561 114.008 2.58583 114.008 3.6181C114.008 4.68134 113.669 5.56393 112.991 6.26587C112.313 6.96781 111.492 7.31878 110.529 7.31878C109.555 7.31878 108.736 6.97641 108.071 6.29168C107.411 5.60694 107.08 4.72091 107.08 3.63358C107.08 2.52218 107.463 1.6155 108.228 0.913557C108.892 0.304519 109.687 0 110.612 0ZM110.513 0.376778C109.88 0.376778 109.372 0.609038 108.99 1.07356C108.513 1.65163 108.275 2.49809 108.275 3.61294C108.275 4.75532 108.522 5.63447 109.016 6.25039C109.395 6.71835 109.896 6.95233 110.518 6.95233C111.182 6.95233 111.73 6.69598 112.162 6.18329C112.596 5.67059 112.814 4.86198 112.814 3.75746C112.814 2.56003 112.575 1.66711 112.099 1.07872C111.716 0.610759 111.188 0.376778 110.513 0.376778Z" fill="black"/>
<path d="M116.612 0.541941V3.29294H117.9C118.196 3.29294 118.411 3.22928 118.547 3.10197C118.686 2.97121 118.778 2.71487 118.824 2.33293H119.017V4.70198H118.824C118.82 4.43015 118.784 4.23058 118.714 4.10327C118.648 3.97595 118.554 3.88133 118.432 3.81939C118.314 3.75402 118.137 3.72133 117.9 3.72133H116.612V5.92006C116.612 6.27447 116.634 6.50845 116.679 6.622C116.714 6.70802 116.787 6.782 116.899 6.84394C117.052 6.92652 117.212 6.96781 117.379 6.96781H117.634V7.15878H114.598V6.96781H114.848C115.14 6.96781 115.353 6.88351 115.485 6.71491C115.568 6.6048 115.61 6.33985 115.61 5.92006V1.39872C115.61 1.04431 115.587 0.810331 115.542 0.696781C115.507 0.610759 115.436 0.536779 115.328 0.474843C115.179 0.392262 115.019 0.350971 114.848 0.350971H114.598V0.160002H119.862L119.93 1.69808H119.747C119.657 1.3712 119.55 1.13205 119.429 0.980655C119.311 0.825815 119.163 0.713985 118.985 0.645168C118.811 0.57635 118.54 0.541941 118.171 0.541941H116.612Z" fill="black"/>
<path d="M130.297 0.160114L130.374 1.80258H130.178C130.141 1.51334 130.089 1.30674 130.024 1.18278C129.917 0.983068 129.775 0.836727 129.596 0.743757C129.421 0.647344 129.189 0.599138 128.9 0.599138H127.915V5.95006C127.915 6.38047 127.961 6.64905 128.054 6.7558C128.185 6.90042 128.386 6.97272 128.658 6.97272H128.9V7.16383H125.935V6.97272H126.183C126.478 6.97272 126.688 6.8832 126.812 6.70415C126.887 6.59396 126.925 6.3426 126.925 5.95006V0.599138H126.085C125.758 0.599138 125.526 0.623241 125.389 0.671447C125.21 0.736871 125.057 0.862552 124.93 1.04849C124.803 1.23443 124.727 1.48579 124.703 1.80258H124.507L124.59 0.160114H130.297Z" fill="black"/>
<path d="M132.849 0.542323V3.31075H134.386C134.784 3.31075 135.051 3.2505 135.185 3.12998C135.364 2.97159 135.463 2.69268 135.484 2.29325H135.675V4.73112H135.484C135.436 4.39023 135.388 4.17158 135.339 4.07517C135.278 3.95465 135.176 3.85996 135.035 3.7911C134.894 3.72223 134.678 3.6878 134.386 3.6878H132.849V5.99654C132.849 6.30644 132.863 6.49583 132.89 6.56469C132.918 6.63012 132.966 6.68349 133.035 6.72481C133.104 6.76268 133.234 6.78162 133.427 6.78162H134.612C135.008 6.78162 135.295 6.75407 135.473 6.69898C135.652 6.64389 135.824 6.53542 135.989 6.37359C136.202 6.1601 136.42 5.83815 136.644 5.40774H136.85L136.247 7.16383H130.859V6.97272H131.107C131.272 6.97272 131.428 6.93313 131.576 6.85393C131.686 6.79884 131.76 6.7162 131.797 6.60601C131.839 6.49583 131.859 6.27029 131.859 5.9294V1.37905C131.859 0.934861 131.815 0.661118 131.725 0.557818C131.601 0.420085 131.395 0.351219 131.107 0.351219H130.859V0.160114H136.247L136.324 1.69411H136.123C136.051 1.32568 135.97 1.07259 135.881 0.934862C135.795 0.797129 135.666 0.692107 135.494 0.619798C135.357 0.568148 135.114 0.542323 134.767 0.542323H132.849Z" fill="black"/>
<path d="M143.455 0L143.615 2.38106H143.455C143.242 1.66829 142.937 1.15523 142.542 0.841892C142.147 0.52855 141.672 0.371879 141.119 0.371879C140.655 0.371879 140.236 0.490673 139.861 0.728262C139.486 0.962408 139.191 1.33773 138.974 1.85423C138.761 2.37073 138.655 3.01291 138.655 3.78077C138.655 4.41434 138.756 4.96355 138.959 5.4284C139.162 5.89324 139.466 6.24963 139.871 6.49755C140.28 6.74547 140.746 6.86943 141.269 6.86943C141.722 6.86943 142.123 6.77301 142.47 6.58019C142.817 6.38392 143.199 5.99654 143.615 5.41807L143.774 5.52137C143.424 6.14461 143.015 6.60085 142.547 6.89009C142.08 7.17932 141.525 7.32394 140.882 7.32394C139.724 7.32394 138.826 6.89353 138.191 6.0327C137.716 5.39224 137.479 4.63815 137.479 3.77044C137.479 3.07144 137.635 2.42926 137.948 1.8439C138.261 1.25853 138.691 0.805737 139.237 0.485508C139.787 0.161836 140.387 0 141.037 0C141.542 0 142.04 0.12396 142.532 0.371879C142.676 0.447632 142.779 0.485508 142.841 0.485508C142.934 0.485508 143.015 0.452797 143.083 0.387373C143.173 0.294404 143.236 0.165279 143.274 0H143.455Z" fill="black"/>
<path d="M146.311 3.40889H149.559V1.40487C149.559 1.04677 149.537 0.810902 149.492 0.697272C149.458 0.611189 149.386 0.537158 149.276 0.475178C149.128 0.392538 148.971 0.351219 148.806 0.351219H148.559V0.160114H151.549V0.351219H151.302C151.137 0.351219 150.98 0.390817 150.833 0.470013C150.723 0.525106 150.647 0.609468 150.606 0.723097C150.568 0.833283 150.549 1.06054 150.549 1.40487V5.92423C150.549 6.2789 150.571 6.51304 150.616 6.62667C150.65 6.71275 150.721 6.78679 150.828 6.84877C150.979 6.93141 151.137 6.97272 151.302 6.97272H151.549V7.16383H148.559V6.97272H148.806C149.092 6.97272 149.3 6.88836 149.43 6.71964C149.516 6.60945 149.559 6.34432 149.559 5.92423V3.7911H146.311V5.92423C146.311 6.2789 146.333 6.51304 146.378 6.62667C146.412 6.71275 146.485 6.78679 146.595 6.84877C146.742 6.93141 146.899 6.97272 147.064 6.97272H147.316V7.16383H144.321V6.97272H144.568C144.857 6.97272 145.067 6.88836 145.197 6.71964C145.28 6.60945 145.321 6.34432 145.321 5.92423V1.40487C145.321 1.04677 145.299 0.810902 145.254 0.697272C145.22 0.611189 145.149 0.537158 145.043 0.475178C144.891 0.392538 144.733 0.351219 144.568 0.351219H144.321V0.160114H147.316V0.351219H147.064C146.899 0.351219 146.742 0.390817 146.595 0.470013C146.488 0.525106 146.414 0.609468 146.373 0.723097C146.332 0.833283 146.311 1.06054 146.311 1.40487V3.40889Z" fill="black"/>
<path d="M151.632 0.160114H153.529L157.803 5.4129V1.37389C157.803 0.94347 157.755 0.674891 157.659 0.568148C157.532 0.423528 157.331 0.351219 157.056 0.351219H156.813V0.160114H159.247V0.351219H158.999C158.704 0.351219 158.494 0.440745 158.37 0.619798C158.295 0.729984 158.257 0.981346 158.257 1.37389V7.27746H158.071L153.462 1.6373V5.95006C153.462 6.38047 153.509 6.64905 153.601 6.7558C153.732 6.90042 153.933 6.97272 154.205 6.97272H154.452V7.16383H152.018V6.97272H152.261C152.56 6.97272 152.771 6.8832 152.895 6.70415C152.971 6.59396 153.008 6.3426 153.008 5.95006V1.07948C152.806 0.841892 152.651 0.685221 152.544 0.609468C152.441 0.533715 152.288 0.463127 152.086 0.397703C151.986 0.366714 151.835 0.351219 151.632 0.351219V0.160114Z" fill="black"/>
<path d="M163.263 0C164.171 0 164.956 0.346054 165.62 1.03816C166.286 1.72683 166.62 2.58766 166.62 3.62065C166.62 4.68464 166.285 5.56785 165.614 6.27029C164.944 6.97272 164.133 7.32394 163.181 7.32394C162.218 7.32394 161.409 6.98133 160.752 6.29611C160.099 5.61089 159.773 4.72424 159.773 3.63615C159.773 2.52395 160.151 1.61664 160.907 0.914202C161.564 0.304734 162.349 0 163.263 0ZM163.165 0.377044C162.54 0.377044 162.038 0.609468 161.66 1.07432C161.189 1.65279 160.954 2.49985 160.954 3.61549C160.954 4.75867 161.198 5.63844 161.686 6.25479C162.06 6.72308 162.555 6.95723 163.171 6.95723C163.827 6.95723 164.368 6.7007 164.795 6.18765C165.224 5.67459 165.439 4.86541 165.439 3.76011C165.439 2.56183 165.204 1.66829 164.733 1.07948C164.355 0.611189 163.832 0.377044 163.165 0.377044Z" fill="black"/>
<path d="M173.736 4.6362L173.944 4.66928L173.215 6.40845H166.62V6.23359H166.94C167.3 6.23359 167.558 6.14537 167.713 5.96893C167.801 5.86811 167.844 5.63496 167.844 5.26949V1.13424C167.844 0.734105 167.786 0.483627 167.669 0.382806C167.505 0.244177 167.262 0.174862 166.94 0.174862H166.62V0H170.476V0.174862C170.024 0.171711 169.706 0.203218 169.522 0.269382C169.342 0.335546 169.218 0.419038 169.151 0.51986C169.084 0.620681 169.05 0.861707 169.05 1.24294V5.26949C169.05 5.53099 169.084 5.71058 169.151 5.80825C169.201 5.87441 169.279 5.92325 169.383 5.95475C169.488 5.98626 169.815 6.00201 170.363 6.00201H170.985C171.638 6.00201 172.097 5.96578 172.361 5.89332C172.625 5.82085 172.865 5.69325 173.083 5.51051C173.301 5.32462 173.519 5.03319 173.736 4.6362Z" fill="black"/>
<path d="M192.88 0H195V0.174862H194.883C194.806 0.174862 194.692 0.211095 194.543 0.28356C194.394 0.356025 194.258 0.459997 194.135 0.595475C194.013 0.730954 193.862 0.9515 193.682 1.25711L192.217 3.691V5.29784C192.217 5.69167 192.259 5.93743 192.343 6.0351C192.456 6.16742 192.635 6.23359 192.88 6.23359H193.077V6.40845H190.496V6.23359H190.711C190.968 6.23359 191.15 6.15167 191.258 5.98784C191.324 5.88702 191.357 5.65702 191.357 5.29784V3.7808L189.69 1.09643C189.492 0.781365 189.358 0.584448 189.286 0.505681C189.217 0.426915 189.073 0.332395 188.851 0.222122C188.792 0.190615 188.705 0.174862 188.592 0.174862V0H191.191V0.174862H191.056C190.916 0.174862 190.786 0.209519 190.666 0.278834C190.55 0.348148 190.492 0.45212 190.492 0.59075C190.492 0.704173 190.583 0.908966 190.765 1.20513L192.033 3.27039L193.225 1.29492C193.405 0.99876 193.494 0.778214 193.494 0.633283C193.494 0.545065 193.472 0.466298 193.427 0.396984C193.385 0.327669 193.324 0.274108 193.243 0.2363C193.163 0.195341 193.042 0.174862 192.88 0.174862V0Z" fill="black"/>
<path d="M19.3361 14.3353V15.6687C19.3361 15.9568 19.3609 16.1357 19.4105 16.2055C19.4779 16.3045 19.5798 16.354 19.7163 16.354H19.8545V16.4789H18.3098V16.354H18.4454C18.5978 16.354 18.7069 16.291 18.7724 16.165C18.8079 16.0952 18.8256 15.9298 18.8256 15.6687V12.7116C18.8256 12.4235 18.8017 12.2446 18.7538 12.1749C18.6847 12.0758 18.5819 12.0263 18.4454 12.0263H18.3098V11.9014H19.6312C19.9538 11.9014 20.2082 11.9442 20.3943 12.0297C20.5804 12.113 20.7372 12.2548 20.8649 12.455C20.9925 12.6553 21.0563 12.8928 21.0563 13.1673C21.0563 13.5409 20.9588 13.8447 20.7638 14.0788C20.5706 14.3128 20.2968 14.4298 19.9423 14.4298C19.8554 14.4298 19.7615 14.422 19.6605 14.4062C19.5594 14.3905 19.4513 14.3668 19.3361 14.3353ZM19.3361 14.1429C19.43 14.1654 19.5133 14.1823 19.586 14.1935C19.6587 14.2048 19.7207 14.2104 19.7721 14.2104C19.9565 14.2104 20.1151 14.1204 20.248 13.9404C20.3827 13.7581 20.4501 13.5229 20.4501 13.2348C20.4501 13.0368 20.4182 12.8534 20.3544 12.6846C20.2906 12.5136 20.2002 12.3864 20.0832 12.3031C19.9662 12.2176 19.8333 12.1749 19.6844 12.1749C19.594 12.1749 19.4779 12.1962 19.3361 12.239V14.1429Z" fill="black"/>
<path d="M0.50772 23.7537L0.437261 23.793C0.272857 23.4214 0.154734 23.0931 0.0828931 22.8082C0.0276311 22.5856 0 22.3613 0 22.1354C0 21.6082 0.102926 21.1359 0.308777 20.7184C0.561601 20.2076 0.971231 19.7099 1.53767 19.2253L1.5874 19.3113C1.33182 19.5356 1.1232 19.7869 0.96156 20.0652C0.759854 20.4123 0.594758 20.8314 0.466274 21.3225C0.337789 21.8137 0.273547 22.2606 0.273547 22.6634C0.273547 22.9711 0.351605 23.3346 0.50772 23.7537Z" fill="black"/>
<path d="M3.30951 19.3113L3.09606 22.0813C3.08501 22.2107 3.07948 22.2958 3.07948 22.3367C3.07948 22.4022 3.08984 22.4522 3.11056 22.4865C3.13681 22.534 3.17204 22.5692 3.21625 22.5921C3.26184 22.6151 3.33783 22.6265 3.44421 22.6265L3.42141 22.7174H2.31479L2.33759 22.6265H2.38525C2.47505 22.6265 2.54827 22.6036 2.60492 22.5578C2.64498 22.5266 2.67607 22.4751 2.69817 22.403C2.71337 22.3523 2.72787 22.2328 2.74169 22.0445L2.77485 21.6221H1.97078L1.6848 22.0813C1.61987 22.1845 1.57911 22.259 1.56254 22.3048C1.54596 22.349 1.53767 22.3908 1.53767 22.4301C1.53767 22.4824 1.55563 22.5275 1.59155 22.5651C1.62747 22.6028 1.68688 22.6232 1.76977 22.6265L1.74697 22.7174H0.915969L0.938765 22.6265C1.041 22.6216 1.1308 22.5815 1.20817 22.5062C1.28692 22.4292 1.40366 22.2663 1.55839 22.0175L3.23698 19.3113H3.30951ZM2.89919 20.129L2.08476 21.4429H2.79143L2.89919 20.129Z" fill="black"/>
<path d="M7.68626 19.3113L7.47696 20.3894H7.40236L7.39407 20.1192C7.38716 20.021 7.37127 19.9334 7.3464 19.8565C7.32153 19.7795 7.28423 19.7132 7.2345 19.6575C7.18476 19.6002 7.1219 19.556 7.04592 19.5249C6.96993 19.4922 6.88566 19.4758 6.79309 19.4758C6.54579 19.4758 6.32958 19.556 6.14445 19.7165C5.90821 19.9211 5.72308 20.2101 5.58907 20.5834C5.47854 20.8911 5.42328 21.203 5.42328 21.519C5.42328 21.8415 5.50272 22.0994 5.6616 22.2925C5.82048 22.4841 6.02702 22.5799 6.28123 22.5799C6.47326 22.5799 6.64388 22.5291 6.79309 22.4276C6.94368 22.3261 7.08322 22.1698 7.2117 21.9586H7.3091C7.15713 22.2451 6.98858 22.4563 6.80345 22.5921C6.61832 22.7264 6.39659 22.7935 6.13824 22.7935C5.9089 22.7935 5.70581 22.737 5.52897 22.6241C5.35213 22.5095 5.21743 22.349 5.12487 22.1427C5.0323 21.9365 4.98602 21.7146 4.98602 21.4772C4.98602 21.1138 5.06822 20.7602 5.23263 20.4164C5.39703 20.0726 5.62223 19.8024 5.90821 19.606C6.19557 19.4095 6.48501 19.3113 6.77651 19.3113C6.91329 19.3113 7.06664 19.3498 7.23657 19.4267C7.31117 19.4595 7.36505 19.4758 7.39821 19.4758C7.43137 19.4758 7.46038 19.4676 7.48525 19.4513C7.51012 19.4349 7.55156 19.3882 7.60959 19.3113H7.68626Z" fill="black"/>
<path d="M9.49333 21.2636C9.49333 21.5092 9.43807 21.7523 9.32755 21.9929C9.21841 22.2336 9.06574 22.4243 8.86956 22.5651C8.67338 22.7059 8.48273 22.7763 8.2976 22.7763C8.10833 22.7763 7.9536 22.7051 7.8334 22.5627C7.71459 22.4186 7.65518 22.2328 7.65518 22.0052C7.65518 21.7646 7.71321 21.5231 7.82926 21.2808C7.94669 21.0385 8.1028 20.8469 8.2976 20.7061C8.49378 20.5653 8.68305 20.4949 8.86542 20.4949C9.04778 20.4949 9.19768 20.5662 9.31511 20.7086C9.43393 20.851 9.49333 21.036 9.49333 21.2636ZM9.14933 21.0941C9.14933 20.9419 9.11755 20.8257 9.054 20.7454C8.99183 20.6636 8.91101 20.6226 8.81154 20.6226C8.60845 20.6226 8.42125 20.7954 8.24994 21.1408C8.08001 21.4846 7.99504 21.8268 7.99504 22.1673C7.99504 22.3228 8.0282 22.4432 8.09451 22.5283C8.16083 22.6118 8.24441 22.6535 8.34526 22.6535C8.54006 22.6535 8.72243 22.4824 8.89236 22.1403C9.06367 21.7965 9.14933 21.4478 9.14933 21.0941Z" fill="black"/>
<path d="M10.5896 20.4949L10.314 21.6123C10.5723 21.1555 10.7699 20.8551 10.9067 20.7111C11.0448 20.567 11.1774 20.4949 11.3045 20.4949C11.3736 20.4949 11.4303 20.522 11.4745 20.576C11.5201 20.63 11.5429 20.7004 11.5429 20.7872C11.5429 20.8854 11.5228 21.0164 11.4828 21.1801L11.2299 22.214C11.2009 22.3335 11.1864 22.4063 11.1864 22.4325C11.1864 22.4554 11.192 22.4751 11.203 22.4915C11.2141 22.5062 11.2258 22.5136 11.2382 22.5136C11.2548 22.5136 11.2748 22.5029 11.2983 22.4816C11.3716 22.4129 11.4517 22.3081 11.5387 22.1673L11.603 22.214C11.4745 22.4317 11.3529 22.5872 11.2382 22.6805C11.1581 22.7444 11.0863 22.7763 11.0227 22.7763C10.9716 22.7763 10.9308 22.7575 10.9004 22.7198C10.8701 22.6838 10.8549 22.6347 10.8549 22.5725C10.8549 22.4939 10.8783 22.3588 10.9253 22.1673L11.1657 21.1801C11.1961 21.0573 11.2113 20.9615 11.2113 20.8928C11.2113 20.86 11.2023 20.8338 11.1844 20.8142C11.1664 20.7929 11.1443 20.7823 11.118 20.7823C11.0794 20.7823 11.0331 20.8019 10.9792 20.8412C10.877 20.9149 10.7706 21.0368 10.6601 21.2071C10.5495 21.3757 10.4328 21.5918 10.3098 21.8554C10.2449 21.9946 10.191 22.1468 10.1482 22.3122L10.0446 22.7174H9.73372L10.1109 21.1801C10.1551 20.9951 10.1772 20.8838 10.1772 20.8461C10.1772 20.8101 10.1648 20.779 10.1399 20.7528C10.1164 20.725 10.0867 20.7111 10.0508 20.7111C10.0342 20.7111 10.0052 20.7143 9.96375 20.7209L9.885 20.7356L9.87257 20.6472L10.5896 20.4949Z" fill="black"/>
<path d="M13.3147 20.4949L13.1883 21.2489H13.1116C13.1047 21.0295 13.0653 20.8699 12.9935 20.77C12.9217 20.6701 12.8325 20.6202 12.7262 20.6202C12.6405 20.6202 12.5721 20.648 12.521 20.7037C12.4713 20.7593 12.4464 20.8265 12.4464 20.9051C12.4464 20.9591 12.4561 21.0107 12.4754 21.0598C12.4961 21.1089 12.5403 21.1776 12.608 21.266C12.7876 21.4985 12.9037 21.6737 12.9562 21.7916C13.0087 21.9094 13.0349 22.0208 13.0349 22.1255C13.0349 22.2958 12.9748 22.4472 12.8546 22.5799C12.7358 22.7108 12.5852 22.7763 12.4029 22.7763C12.3034 22.7763 12.1887 22.7485 12.0589 22.6928C12.0133 22.6732 11.9781 22.6634 11.9532 22.6634C11.891 22.6634 11.844 22.701 11.8123 22.7763H11.7356L11.862 21.9807H11.9387C11.947 22.2295 11.9905 22.4055 12.0692 22.5086C12.148 22.6118 12.2557 22.6634 12.3925 22.6634C12.4975 22.6634 12.5804 22.629 12.6412 22.5602C12.7034 22.4898 12.7345 22.4039 12.7345 22.3024C12.7345 22.2369 12.7234 22.1763 12.7013 22.1206C12.6626 22.0224 12.5811 21.8865 12.4568 21.713C12.3338 21.5395 12.2544 21.4093 12.2184 21.3225C12.1839 21.2358 12.1666 21.149 12.1666 21.0622C12.1666 20.9034 12.215 20.7692 12.3117 20.6595C12.4098 20.5498 12.5355 20.4949 12.6889 20.4949C12.7331 20.4949 12.7731 20.499 12.8091 20.5072C12.8284 20.5121 12.8733 20.531 12.9438 20.5637C13.0156 20.5948 13.0633 20.6104 13.0868 20.6104C13.1462 20.6104 13.1959 20.5719 13.236 20.4949H13.3147Z" fill="black"/>
<path d="M14.5312 19.8859L14.3695 20.5539H14.6949L14.6596 20.7086H14.3364L13.9799 22.1575C13.9412 22.313 13.9219 22.4137 13.9219 22.4595C13.9219 22.4874 13.9274 22.5086 13.9385 22.5234C13.9495 22.5381 13.9627 22.5455 13.9779 22.5455C14.0124 22.5455 14.058 22.5168 14.1146 22.4595C14.1478 22.4268 14.2217 22.3261 14.3364 22.1575L14.4048 22.2189C14.2776 22.4382 14.1575 22.593 14.0442 22.683C13.9668 22.7452 13.8887 22.7763 13.81 22.7763C13.7492 22.7763 13.6995 22.7542 13.6608 22.71C13.6221 22.6642 13.6028 22.6061 13.6028 22.5357C13.6028 22.4472 13.6249 22.3122 13.6691 22.1305L14.0152 20.7086H13.7022L13.723 20.6128C13.8749 20.5637 14.0013 20.4909 14.1022 20.3943C14.203 20.296 14.3156 20.1266 14.44 19.8859H14.5312Z" fill="black"/>
<path d="M15.559 19.52C15.6171 19.52 15.6661 19.5438 15.7062 19.5912C15.7462 19.6387 15.7663 19.6968 15.7663 19.7656C15.7663 19.8327 15.7455 19.8908 15.7041 19.94C15.664 19.9874 15.6157 20.0112 15.559 20.0112C15.5024 20.0112 15.4533 19.9874 15.4119 19.94C15.3718 19.8908 15.3518 19.8327 15.3518 19.7656C15.3518 19.6968 15.3718 19.6387 15.4119 19.5912C15.452 19.5438 15.501 19.52 15.559 19.52ZM15.586 20.4949L15.1757 22.2164C15.148 22.3326 15.1342 22.4022 15.1342 22.4251C15.1342 22.4513 15.1404 22.4726 15.1529 22.489C15.1667 22.5054 15.1826 22.5136 15.2005 22.5136C15.2212 22.5136 15.2461 22.5005 15.2751 22.4743C15.3539 22.4006 15.4333 22.2958 15.5134 22.1599L15.586 22.2164C15.492 22.3867 15.3815 22.5299 15.2544 22.6462C15.1605 22.7329 15.0707 22.7763 14.985 22.7763C14.9284 22.7763 14.8821 22.7567 14.8462 22.7174C14.8102 22.6764 14.7923 22.6257 14.7923 22.5651C14.7923 22.5045 14.8095 22.4039 14.8441 22.2631L15.1135 21.1629C15.1577 20.9828 15.1798 20.8699 15.1798 20.824C15.1798 20.788 15.1687 20.7585 15.1466 20.7356C15.1259 20.7127 15.0969 20.7012 15.0596 20.7012C15.0292 20.7012 14.9664 20.7102 14.871 20.7282V20.6325L15.586 20.4949Z" fill="black"/>
<path d="M16.8936 19.8859L16.732 20.5539H17.0573L17.0221 20.7086H16.6988L16.3424 22.1575C16.3037 22.313 16.2844 22.4137 16.2844 22.4595C16.2844 22.4874 16.2899 22.5086 16.3009 22.5234C16.312 22.5381 16.3251 22.5455 16.3403 22.5455C16.3748 22.5455 16.4204 22.5168 16.4771 22.4595C16.5102 22.4268 16.5841 22.3261 16.6988 22.1575L16.7672 22.2189C16.6401 22.4382 16.5199 22.593 16.4066 22.683C16.3293 22.7452 16.2512 22.7763 16.1724 22.7763C16.1117 22.7763 16.0619 22.7542 16.0232 22.71C15.9846 22.6642 15.9652 22.6061 15.9652 22.5357C15.9652 22.4472 15.9873 22.3122 16.0315 22.1305L16.3776 20.7086H16.0647L16.0854 20.6128C16.2374 20.5637 16.3638 20.4909 16.4646 20.3943C16.5655 20.296 16.6781 20.1266 16.8024 19.8859H16.8936Z" fill="black"/>
<path d="M18.9701 20.5539L18.6095 22.0175C18.5556 22.2352 18.5287 22.3728 18.5287 22.4301C18.5287 22.4595 18.5328 22.4816 18.5411 22.4964C18.5508 22.5095 18.5632 22.516 18.5784 22.516C18.6019 22.516 18.6275 22.5037 18.6551 22.4792C18.6841 22.453 18.7559 22.3515 18.8706 22.1747L18.9328 22.2311C18.8236 22.4358 18.7117 22.5864 18.5971 22.683C18.5211 22.7452 18.4479 22.7763 18.3774 22.7763C18.3235 22.7763 18.2814 22.7583 18.251 22.7223C18.2206 22.6863 18.2054 22.6396 18.2054 22.5823C18.2054 22.5266 18.2144 22.453 18.2323 22.3613C18.2544 22.2401 18.3173 21.9766 18.4209 21.5706C18.1861 22.0273 17.9892 22.3425 17.8303 22.516C17.6728 22.6895 17.5264 22.7763 17.391 22.7763C17.3274 22.7763 17.2735 22.7501 17.2293 22.6977C17.1851 22.6453 17.163 22.579 17.163 22.4988C17.163 22.376 17.1934 22.1878 17.2542 21.934L17.4345 21.1752C17.4787 20.9935 17.5008 20.8805 17.5008 20.8363C17.5008 20.8166 17.4946 20.8003 17.4822 20.7872C17.4711 20.7724 17.4587 20.7651 17.4449 20.7651C17.4158 20.7651 17.3868 20.7774 17.3578 20.8019C17.3288 20.8265 17.2632 20.9173 17.1609 21.0745L17.0967 21.0205C17.2003 20.8306 17.3102 20.6906 17.4262 20.6005C17.5146 20.5301 17.5961 20.4949 17.6707 20.4949C17.7219 20.4949 17.7633 20.5146 17.7951 20.5539C17.8282 20.5915 17.8448 20.6407 17.8448 20.7012C17.8448 20.7896 17.8172 20.9476 17.7619 21.1752L17.5671 21.9684C17.5132 22.1845 17.4863 22.3212 17.4863 22.3785C17.4863 22.4096 17.4946 22.435 17.5112 22.4546C17.5291 22.4726 17.5526 22.4816 17.5816 22.4816C17.6272 22.4816 17.6866 22.4546 17.7598 22.4006C17.8331 22.3466 17.9305 22.2271 18.052 22.0421C18.175 21.8554 18.2759 21.6811 18.3546 21.519C18.4347 21.3553 18.5197 21.0958 18.6095 20.7405L18.6551 20.5539H18.9701Z" fill="black"/>
<path d="M19.6001 21.7916C19.5904 21.8734 19.5856 21.9414 19.5856 21.9954C19.5856 22.1411 19.6291 22.2655 19.7161 22.3687C19.8032 22.4702 19.9089 22.5209 20.0332 22.5209C20.1327 22.5209 20.228 22.4972 20.3192 22.4497C20.4117 22.4006 20.5485 22.2934 20.7295 22.128L20.773 22.1992C20.4456 22.584 20.1334 22.7763 19.8363 22.7763C19.6346 22.7763 19.4826 22.701 19.3804 22.5504C19.2782 22.3998 19.2271 22.2336 19.2271 22.0519C19.2271 21.8079 19.2906 21.5583 19.4177 21.3029C19.5448 21.0475 19.7044 20.8494 19.8964 20.7086C20.0885 20.5662 20.286 20.4949 20.4891 20.4949C20.6355 20.4949 20.744 20.5301 20.8145 20.6005C20.8849 20.6709 20.9201 20.7544 20.9201 20.851C20.9201 20.9869 20.8746 21.1171 20.7834 21.2415C20.6632 21.4036 20.4863 21.5345 20.2529 21.6344C20.0981 21.7015 19.8805 21.7539 19.6001 21.7916ZM19.6146 21.6712C19.8191 21.6434 19.9855 21.5959 20.114 21.5288C20.2839 21.4388 20.411 21.3315 20.4953 21.2071C20.581 21.081 20.6238 20.9615 20.6238 20.8486C20.6238 20.7798 20.6052 20.7242 20.5679 20.6816C20.5319 20.639 20.4801 20.6177 20.4124 20.6177C20.2715 20.6177 20.1216 20.707 19.9627 20.8854C19.8052 21.0622 19.6892 21.3242 19.6146 21.6712Z" fill="black"/>
<path d="M21.9169 20.4949L21.6413 21.6123C21.8997 21.1555 22.0972 20.8551 22.234 20.7111C22.3722 20.567 22.5048 20.4949 22.6319 20.4949C22.701 20.4949 22.7576 20.522 22.8018 20.576C22.8474 20.63 22.8702 20.7004 22.8702 20.7872C22.8702 20.8854 22.8502 21.0164 22.8101 21.1801L22.5573 22.214C22.5283 22.3335 22.5138 22.4063 22.5138 22.4325C22.5138 22.4554 22.5193 22.4751 22.5303 22.4915C22.5414 22.5062 22.5531 22.5136 22.5656 22.5136C22.5822 22.5136 22.6022 22.5029 22.6257 22.4816C22.6989 22.4129 22.779 22.3081 22.8661 22.1673L22.9303 22.214C22.8018 22.4317 22.6802 22.5872 22.5656 22.6805C22.4854 22.7444 22.4136 22.7763 22.3501 22.7763C22.2989 22.7763 22.2582 22.7575 22.2278 22.7198C22.1974 22.6838 22.1822 22.6347 22.1822 22.5725C22.1822 22.4939 22.2057 22.3588 22.2527 22.1673L22.493 21.1801C22.5234 21.0573 22.5386 20.9615 22.5386 20.8928C22.5386 20.86 22.5297 20.8338 22.5117 20.8142C22.4937 20.7929 22.4716 20.7823 22.4454 20.7823C22.4067 20.7823 22.3604 20.8019 22.3065 20.8412C22.2043 20.9149 22.0979 21.0368 21.9874 21.2071C21.8769 21.3757 21.7601 21.5918 21.6372 21.8554C21.5722 21.9946 21.5184 22.1468 21.4755 22.3122L21.3719 22.7174H21.0611L21.4382 21.1801C21.4824 20.9951 21.5045 20.8838 21.5045 20.8461C21.5045 20.8101 21.4921 20.779 21.4672 20.7528C21.4438 20.725 21.4141 20.7111 21.3781 20.7111C21.3616 20.7111 21.3325 20.7143 21.2911 20.7209L21.2123 20.7356L21.1999 20.6472L21.9169 20.4949Z" fill="black"/>
<path d="M24.2048 19.8859L24.0431 20.5539H24.3685L24.3333 20.7086H24.01L23.6536 22.1575C23.6149 22.313 23.5955 22.4137 23.5955 22.4595C23.5955 22.4874 23.6011 22.5086 23.6121 22.5234C23.6232 22.5381 23.6363 22.5455 23.6515 22.5455C23.686 22.5455 23.7316 22.5168 23.7883 22.4595C23.8214 22.4268 23.8953 22.3261 24.01 22.1575L24.0784 22.2189C23.9513 22.4382 23.8311 22.593 23.7178 22.683C23.6404 22.7452 23.5624 22.7763 23.4836 22.7763C23.4228 22.7763 23.3731 22.7542 23.3344 22.71C23.2957 22.6642 23.2764 22.6061 23.2764 22.5357C23.2764 22.4472 23.2985 22.3122 23.3427 22.1305L23.6888 20.7086H23.3759L23.3966 20.6128C23.5486 20.5637 23.675 20.4909 23.7758 20.3943C23.8767 20.296 23.9893 20.1266 24.1136 19.8859H24.2048Z" fill="black"/>
<path d="M25.9 19.3874H27.0874L27.0646 19.4783C26.943 19.4816 26.856 19.4955 26.8035 19.52C26.7524 19.5429 26.7082 19.5847 26.6709 19.6453C26.6349 19.7058 26.5969 19.818 26.5569 19.9817L26.2688 21.1605C26.2177 21.37 26.1873 21.5075 26.1776 21.573C26.1611 21.6778 26.1528 21.7752 26.1528 21.8652C26.1528 22.0633 26.2149 22.2311 26.3393 22.3687C26.4636 22.5045 26.6301 22.5725 26.8387 22.5725C26.9755 22.5725 27.0978 22.5422 27.2055 22.4816C27.3133 22.4194 27.4052 22.3335 27.4811 22.2238C27.5585 22.1125 27.629 21.9627 27.6925 21.7744C27.7561 21.5845 27.812 21.3929 27.8604 21.1997L28.1091 20.1831C28.1712 19.9293 28.2023 19.764 28.2023 19.687C28.2023 19.633 28.1809 19.5872 28.1381 19.5495C28.0966 19.5102 28.0117 19.4865 27.8832 19.4783L27.906 19.3874H28.7991L28.7763 19.4783C28.6713 19.4783 28.5954 19.4906 28.5484 19.5151C28.5028 19.538 28.4627 19.5806 28.4282 19.6428C28.3937 19.7034 28.355 19.8221 28.3121 19.9989L28.0075 21.2341C27.9094 21.6352 27.8169 21.9315 27.7298 22.1231C27.6428 22.313 27.5164 22.4726 27.3506 22.602C27.1862 22.7297 26.9817 22.7935 26.7372 22.7935C26.4553 22.7935 26.2281 22.6994 26.0554 22.5111C25.8827 22.3212 25.7963 22.1043 25.7963 21.8603C25.7963 21.7637 25.8039 21.6606 25.8191 21.5509C25.8302 21.4789 25.8571 21.3545 25.9 21.1776L26.1776 20.0456C26.2163 19.8818 26.2357 19.7615 26.2357 19.6846C26.2357 19.624 26.2156 19.5773 26.1756 19.5446C26.1369 19.5102 26.0381 19.4881 25.8792 19.4783L25.9 19.3874Z" fill="black"/>
<path d="M29.3483 20.4949L29.0727 21.6123C29.331 21.1555 29.5286 20.8551 29.6654 20.7111C29.8035 20.567 29.9362 20.4949 30.0633 20.4949C30.1323 20.4949 30.189 20.522 30.2332 20.576C30.2788 20.63 30.3016 20.7004 30.3016 20.7872C30.3016 20.8854 30.2815 21.0164 30.2415 21.1801L29.9887 22.214C29.9596 22.3335 29.9451 22.4063 29.9451 22.4325C29.9451 22.4554 29.9507 22.4751 29.9617 22.4915C29.9728 22.5062 29.9845 22.5136 29.9969 22.5136C30.0135 22.5136 30.0336 22.5029 30.057 22.4816C30.1303 22.4129 30.2104 22.3081 30.2974 22.1673L30.3617 22.214C30.2332 22.4317 30.1116 22.5872 29.9969 22.6805C29.9168 22.7444 29.845 22.7763 29.7814 22.7763C29.7303 22.7763 29.6896 22.7575 29.6592 22.7198C29.6288 22.6838 29.6136 22.6347 29.6136 22.5725C29.6136 22.4939 29.6371 22.3588 29.684 22.1673L29.9244 21.1801C29.9548 21.0573 29.97 20.9615 29.97 20.8928C29.97 20.86 29.961 20.8338 29.9431 20.8142C29.9251 20.7929 29.903 20.7823 29.8768 20.7823C29.8381 20.7823 29.7918 20.8019 29.7379 20.8412C29.6357 20.9149 29.5293 21.0368 29.4188 21.2071C29.3082 21.3757 29.1915 21.5918 29.0685 21.8554C29.0036 21.9946 28.9497 22.1468 28.9069 22.3122L28.8033 22.7174H28.4924L28.8696 21.1801C28.9138 20.9951 28.9359 20.8838 28.9359 20.8461C28.9359 20.8101 28.9235 20.779 28.8986 20.7528C28.8751 20.725 28.8454 20.7111 28.8095 20.7111C28.7929 20.7111 28.7639 20.7143 28.7225 20.7209L28.6437 20.7356L28.6313 20.6472L29.3483 20.4949Z" fill="black"/>
<path d="M31.4828 19.52C31.5408 19.52 31.5899 19.5438 31.6299 19.5912C31.67 19.6387 31.69 19.6968 31.69 19.7656C31.69 19.8327 31.6693 19.8908 31.6279 19.94C31.5878 19.9874 31.5394 20.0112 31.4828 20.0112C31.4262 20.0112 31.3771 19.9874 31.3357 19.94C31.2956 19.8908 31.2756 19.8327 31.2756 19.7656C31.2756 19.6968 31.2956 19.6387 31.3357 19.5912C31.3757 19.5438 31.4248 19.52 31.4828 19.52ZM31.5097 20.4949L31.0994 22.2164C31.0718 22.3326 31.058 22.4022 31.058 22.4251C31.058 22.4513 31.0642 22.4726 31.0766 22.489C31.0904 22.5054 31.1063 22.5136 31.1243 22.5136C31.145 22.5136 31.1699 22.5005 31.1989 22.4743C31.2776 22.4006 31.3571 22.2958 31.4372 22.1599L31.5097 22.2164C31.4158 22.3867 31.3053 22.5299 31.1782 22.6462C31.0842 22.7329 30.9944 22.7763 30.9088 22.7763C30.8521 22.7763 30.8058 22.7567 30.7699 22.7174C30.734 22.6764 30.716 22.6257 30.716 22.5651C30.716 22.5045 30.7333 22.4039 30.7679 22.2631L31.0373 21.1629C31.0815 20.9828 31.1036 20.8699 31.1036 20.824C31.1036 20.788 31.0925 20.7585 31.0704 20.7356C31.0497 20.7127 31.0207 20.7012 30.9834 20.7012C30.953 20.7012 30.8901 20.7102 30.7948 20.7282V20.6325L31.5097 20.4949Z" fill="black"/>
<path d="M32.8174 19.8859L32.6557 20.5539H32.9811L32.9459 20.7086H32.6226L32.2661 22.1575C32.2275 22.313 32.2081 22.4137 32.2081 22.4595C32.2081 22.4874 32.2136 22.5086 32.2247 22.5234C32.2358 22.5381 32.2489 22.5455 32.2641 22.5455C32.2986 22.5455 32.3442 22.5168 32.4008 22.4595C32.434 22.4268 32.5079 22.3261 32.6226 22.1575L32.691 22.2189C32.5639 22.4382 32.4437 22.593 32.3304 22.683C32.253 22.7452 32.175 22.7763 32.0962 22.7763C32.0354 22.7763 31.9857 22.7542 31.947 22.71C31.9083 22.6642 31.889 22.6061 31.889 22.5357C31.889 22.4472 31.9111 22.3122 31.9553 22.1305L32.3014 20.7086H31.9885L32.0092 20.6128C32.1611 20.5637 32.2876 20.4909 32.3884 20.3943C32.4893 20.296 32.6019 20.1266 32.7262 19.8859H32.8174Z" fill="black"/>
<path d="M35.9197 21.2636C35.9197 21.5092 35.8644 21.7523 35.7539 21.9929C35.6447 22.2336 35.4921 22.4243 35.2959 22.5651C35.0997 22.7059 34.9091 22.7763 34.7239 22.7763C34.5347 22.7763 34.3799 22.7051 34.2597 22.5627C34.1409 22.4186 34.0815 22.2328 34.0815 22.0052C34.0815 21.7646 34.1395 21.5231 34.2556 21.2808C34.373 21.0385 34.5291 20.8469 34.7239 20.7061C34.9201 20.5653 35.1094 20.4949 35.2917 20.4949C35.4741 20.4949 35.624 20.5662 35.7414 20.7086C35.8603 20.851 35.9197 21.036 35.9197 21.2636ZM35.5757 21.0941C35.5757 20.9419 35.5439 20.8257 35.4803 20.7454C35.4182 20.6636 35.3373 20.6226 35.2379 20.6226C35.0348 20.6226 34.8476 20.7954 34.6763 21.1408C34.5063 21.4846 34.4214 21.8268 34.4214 22.1673C34.4214 22.3228 34.4545 22.4432 34.5208 22.5283C34.5872 22.6118 34.6707 22.6535 34.7716 22.6535C34.9664 22.6535 35.1488 22.4824 35.3187 22.1403C35.49 21.7965 35.5757 21.4478 35.5757 21.0941Z" fill="black"/>
<path d="M37.3371 20.5539L37.2998 20.716H36.9973L36.7693 21.7891C36.6685 22.2623 36.5669 22.6282 36.4647 22.8868C36.3196 23.2519 36.1635 23.504 35.9963 23.6432C35.8692 23.7496 35.7421 23.8028 35.615 23.8028C35.5321 23.8028 35.4617 23.7733 35.4036 23.7144C35.3608 23.6735 35.3394 23.6203 35.3394 23.5548C35.3394 23.5024 35.3574 23.4565 35.3933 23.4173C35.4278 23.3796 35.4707 23.3608 35.5218 23.3608C35.5591 23.3608 35.5909 23.3747 35.6171 23.4025C35.642 23.4304 35.6544 23.4623 35.6544 23.4983C35.6544 23.5343 35.6399 23.5679 35.6109 23.599C35.5888 23.6219 35.5777 23.6391 35.5777 23.6506C35.5777 23.6653 35.5826 23.6767 35.5922 23.6849C35.6047 23.6964 35.624 23.7021 35.6503 23.7021C35.7097 23.7021 35.7725 23.68 35.8388 23.6358C35.9038 23.5916 35.9618 23.5253 36.0129 23.4369C36.064 23.3501 36.1124 23.2241 36.158 23.0587C36.1773 22.99 36.2291 22.7632 36.3134 22.3785L36.674 20.716H36.3134L36.3424 20.5539C36.4571 20.5539 36.5372 20.5449 36.5828 20.5269C36.6284 20.5072 36.6698 20.4712 36.7071 20.4188C36.7458 20.3648 36.7956 20.2649 36.8564 20.1192C36.9379 19.9228 37.0159 19.7705 37.0905 19.6625C37.1928 19.5168 37.2998 19.4079 37.4117 19.3358C37.525 19.2622 37.6314 19.2253 37.7309 19.2253C37.8359 19.2253 37.9202 19.2573 37.9837 19.3211C38.0473 19.3833 38.079 19.4513 38.079 19.5249C38.079 19.5822 38.0631 19.6305 38.0314 19.6698C37.9996 19.7091 37.9588 19.7288 37.9091 19.7288C37.8663 19.7288 37.831 19.714 37.8034 19.6846C37.7772 19.6551 37.764 19.6199 37.764 19.579C37.764 19.5528 37.773 19.5208 37.791 19.4832C37.8089 19.4439 37.8179 19.4177 37.8179 19.4046C37.8179 19.3817 37.8117 19.3645 37.7993 19.353C37.7813 19.3367 37.7551 19.3285 37.7205 19.3285C37.6335 19.3285 37.5554 19.3612 37.4863 19.4267C37.3938 19.5135 37.3109 19.6494 37.2377 19.8344C37.2004 19.931 37.132 20.1708 37.0325 20.5539H37.3371Z" fill="black"/>
<path d="M39.6664 19.3874L39.9255 22.0691L41.5564 19.3874H42.2423V19.4783C42.0931 19.4897 42.0054 19.5012 41.9791 19.5127C41.9336 19.5339 41.8914 19.5765 41.8527 19.6404C41.8154 19.7042 41.7747 19.827 41.7305 20.0087L41.2103 22.1206C41.1799 22.2434 41.1647 22.34 41.1647 22.4104C41.1647 22.4743 41.1834 22.5226 41.2207 22.5553C41.2732 22.6028 41.3561 22.6265 41.4694 22.6265H41.5191L41.5004 22.7174H40.3171L40.3379 22.6265H40.3938C40.4988 22.6265 40.5789 22.6085 40.6342 22.5725C40.677 22.5463 40.715 22.4972 40.7482 22.4251C40.7827 22.3515 40.8304 22.1894 40.8912 21.9389L41.3554 20.0087L39.7162 22.7174H39.6333L39.3701 20.0087L38.8686 22.0691C38.8258 22.2442 38.8043 22.3621 38.8043 22.4227C38.8043 22.4833 38.823 22.5299 38.8603 22.5627C38.8976 22.5938 38.9881 22.6151 39.1318 22.6265L39.109 22.7174H38.1826L38.2054 22.6265H38.2614C38.3982 22.6265 38.4969 22.5856 38.5577 22.5037C38.6019 22.4448 38.6482 22.3171 38.6966 22.1206L39.3079 19.6379C39.2623 19.5822 39.2188 19.5446 39.1774 19.5249C39.1359 19.5053 39.0592 19.4897 38.9473 19.4783L38.9681 19.3874H39.6664Z" fill="black"/>
<path d="M44.0432 19.3113L43.8297 22.0813C43.8187 22.2107 43.8132 22.2958 43.8132 22.3367C43.8132 22.4022 43.8235 22.4522 43.8442 22.4865C43.8705 22.534 43.9057 22.5692 43.9499 22.5921C43.9955 22.6151 44.0715 22.6265 44.1779 22.6265L44.1551 22.7174H43.0485L43.0713 22.6265H43.1189C43.2087 22.6265 43.282 22.6036 43.3386 22.5578C43.3787 22.5266 43.4097 22.4751 43.4318 22.403C43.447 22.3523 43.4616 22.2328 43.4754 22.0445L43.5085 21.6221H42.7045L42.4185 22.0813C42.3535 22.1845 42.3128 22.259 42.2962 22.3048C42.2796 22.349 42.2713 22.3908 42.2713 22.4301C42.2713 22.4824 42.2893 22.5275 42.3252 22.5651C42.3611 22.6028 42.4206 22.6232 42.5034 22.6265L42.4807 22.7174H41.6496L41.6724 22.6265C41.7747 22.6216 41.8645 22.5815 41.9418 22.5062C42.0206 22.4292 42.1373 22.2663 42.2921 22.0175L43.9707 19.3113H44.0432ZM43.6329 20.129L42.8184 21.4429H43.5251L43.6329 20.129Z" fill="black"/>
<path d="M45.498 20.8731H46.7952L47.0004 20.0505C47.0391 19.89 47.0584 19.7656 47.0584 19.6772C47.0584 19.6346 47.0494 19.5986 47.0315 19.5691C47.0149 19.538 46.9887 19.5151 46.9527 19.5004C46.9168 19.4856 46.8464 19.4783 46.7414 19.4783L46.7621 19.3874H47.8936L47.8687 19.4783C47.7734 19.4766 47.7022 19.4881 47.6553 19.5127C47.5889 19.547 47.5399 19.5912 47.5081 19.6453C47.4625 19.7222 47.4162 19.8573 47.3693 20.0505L46.874 22.0617C46.8325 22.2287 46.8118 22.3482 46.8118 22.4202C46.8118 22.4824 46.8298 22.5299 46.8657 22.5627C46.903 22.5938 46.9907 22.6151 47.1289 22.6265L47.1061 22.7174H46.0119L46.0409 22.6265C46.1487 22.6232 46.2205 22.6118 46.2564 22.5921C46.3117 22.5627 46.3518 22.525 46.3766 22.4792C46.4126 22.4153 46.4568 22.2762 46.5093 22.0617L46.7621 21.0426H45.4586L45.2037 22.0617C45.1636 22.2254 45.1436 22.3449 45.1436 22.4202C45.1436 22.4824 45.1616 22.5299 45.1975 22.5627C45.2334 22.5938 45.3204 22.6151 45.4586 22.6265L45.442 22.7174H44.3395L44.3665 22.6265C44.4756 22.6232 44.5481 22.6118 44.5841 22.5921C44.6393 22.5627 44.6801 22.525 44.7063 22.4792C44.7423 22.412 44.7865 22.2729 44.839 22.0617L45.3363 20.0505C45.3764 19.8867 45.3964 19.7623 45.3964 19.6772C45.3964 19.6346 45.3874 19.5986 45.3695 19.5691C45.3529 19.538 45.326 19.5151 45.2887 19.5004C45.2527 19.4856 45.1816 19.4783 45.0752 19.4783L45.1001 19.3874H46.2088L46.186 19.4783C46.0934 19.4766 46.025 19.4881 45.9808 19.5127C45.9159 19.5454 45.8682 19.5888 45.8378 19.6428C45.7964 19.7148 45.7508 19.8507 45.701 20.0505L45.498 20.8731Z" fill="black"/>
<path d="M48.8924 19.5667L48.5712 20.883H48.8344C49.0223 20.883 49.1584 20.8494 49.2427 20.7823C49.3269 20.7135 49.3995 20.5874 49.4603 20.4041H49.5369L49.2489 21.6123H49.166C49.1909 21.5108 49.2033 21.424 49.2033 21.352C49.2033 21.2816 49.1909 21.2251 49.166 21.1826C49.1425 21.14 49.1093 21.1089 49.0665 21.0892C49.0251 21.068 48.9366 21.0573 48.8013 21.0573H48.5339L48.2624 22.1599C48.2362 22.2663 48.2231 22.3474 48.2231 22.403C48.2231 22.4456 48.2403 22.4833 48.2749 22.516C48.2984 22.5389 48.3571 22.5504 48.451 22.5504H48.6997C48.9691 22.5504 49.1846 22.4939 49.3463 22.3809C49.5093 22.268 49.6551 22.0715 49.7835 21.7916H49.8602L49.595 22.7174H47.4232L47.4501 22.6265C47.5579 22.6232 47.6304 22.6118 47.6677 22.5921C47.723 22.5627 47.763 22.525 47.7879 22.4792C47.8252 22.412 47.8694 22.2713 47.9205 22.0568L48.4137 20.048C48.4524 19.8859 48.4718 19.7623 48.4718 19.6772C48.4718 19.615 48.4531 19.5667 48.4158 19.5323C48.3799 19.4963 48.3087 19.4783 48.2024 19.4783H48.1588L48.1837 19.3874H50.2021L50.0281 20.1904H49.9514C49.9611 20.1151 49.9659 20.0521 49.9659 20.0013C49.9659 19.9146 49.9479 19.8417 49.912 19.7828C49.865 19.7075 49.7967 19.6502 49.7069 19.6109C49.6405 19.5814 49.4879 19.5667 49.2489 19.5667H48.8924Z" fill="black"/>
<path d="M50.0695 23.2699C50.1731 23.2143 50.2574 23.1439 50.3223 23.0587C50.3721 22.9932 50.3969 22.9302 50.3969 22.8696C50.3969 22.8402 50.3928 22.8132 50.3845 22.7886C50.379 22.7755 50.3596 22.7493 50.3265 22.71C50.2933 22.6707 50.2747 22.6437 50.2705 22.629C50.2609 22.6011 50.256 22.5692 50.256 22.5332C50.256 22.4628 50.2761 22.4022 50.3161 22.3515C50.3576 22.3007 50.4059 22.2753 50.4612 22.2753C50.5178 22.2753 50.5676 22.3024 50.6104 22.3564C50.6546 22.4104 50.6767 22.4784 50.6767 22.5602C50.6767 22.7059 50.6284 22.8533 50.5316 23.0022C50.4349 23.1512 50.2947 23.2666 50.111 23.3485L50.0695 23.2699Z" fill="black"/>
<path d="M53.58 19.3874L53.8391 22.0691L55.47 19.3874H56.1559V19.4783C56.0067 19.4897 55.919 19.5012 55.8928 19.5127C55.8472 19.5339 55.805 19.5765 55.7663 19.6404C55.729 19.7042 55.6883 19.827 55.6441 20.0087L55.1239 22.1206C55.0935 22.2434 55.0783 22.34 55.0783 22.4104C55.0783 22.4743 55.097 22.5226 55.1343 22.5553C55.1868 22.6028 55.2697 22.6265 55.383 22.6265H55.4327L55.4141 22.7174H54.2308L54.2515 22.6265H54.3074C54.4124 22.6265 54.4926 22.6085 54.5478 22.5725C54.5906 22.5463 54.6286 22.4972 54.6618 22.4251C54.6963 22.3515 54.744 22.1894 54.8048 21.9389L55.269 20.0087L53.6298 22.7174H53.5469L53.2837 20.0087L52.7822 22.0691C52.7394 22.2442 52.718 22.3621 52.718 22.4227C52.718 22.4833 52.7366 22.5299 52.7739 22.5627C52.8112 22.5938 52.9017 22.6151 53.0454 22.6265L53.0226 22.7174H52.0963L52.119 22.6265H52.175C52.3118 22.6265 52.4106 22.5856 52.4713 22.5037C52.5156 22.4448 52.5618 22.3171 52.6102 22.1206L53.2215 19.6379C53.1759 19.5822 53.1324 19.5446 53.091 19.5249C53.0495 19.5053 52.9729 19.4897 52.8609 19.4783L52.8817 19.3874H53.58Z" fill="black"/>
<path d="M57.762 20.4949L57.3579 22.1599L57.3123 22.3834C57.3082 22.4047 57.3061 22.4227 57.3061 22.4374C57.3061 22.4636 57.313 22.4865 57.3268 22.5062C57.3379 22.5209 57.3517 22.5283 57.3683 22.5283C57.3862 22.5283 57.4097 22.5152 57.4387 22.489C57.4926 22.4415 57.5644 22.3433 57.6542 22.1943L57.7247 22.2532C57.6294 22.4235 57.5313 22.5537 57.4304 22.6437C57.3296 22.7321 57.2363 22.7763 57.1507 22.7763C57.0913 22.7763 57.0464 22.7583 57.016 22.7223C56.9869 22.6879 56.9724 22.6372 56.9724 22.57C56.9724 22.4898 56.9876 22.3842 57.018 22.2532L57.0616 22.0691C56.8806 22.349 56.7141 22.5447 56.5621 22.656C56.453 22.7362 56.3459 22.7763 56.2409 22.7763C56.1401 22.7763 56.053 22.7272 55.9798 22.629C55.9066 22.5291 55.87 22.3924 55.87 22.2189C55.87 21.9586 55.9356 21.6843 56.0668 21.3962C56.1995 21.1064 56.3673 20.8748 56.5704 20.7012C56.7293 20.5637 56.8792 20.4949 57.0201 20.4949C57.1044 20.4949 57.1741 20.5211 57.2294 20.5735C57.2861 20.6259 57.3289 20.7127 57.3579 20.8338L57.4325 20.5539L57.762 20.4949ZM57.0242 20.6226C56.9358 20.6226 56.8419 20.6718 56.7424 20.77C56.6015 20.9091 56.4758 21.1154 56.3652 21.3888C56.2561 21.6622 56.2015 21.9094 56.2015 22.1305C56.2015 22.2418 56.225 22.3302 56.272 22.3957C56.319 22.4595 56.3728 22.4915 56.4336 22.4915C56.5842 22.4915 56.7479 22.3597 56.9248 22.0961C57.161 21.7457 57.2791 21.3864 57.2791 21.018C57.2791 20.8789 57.2564 20.7782 57.2108 20.716C57.1652 20.6538 57.103 20.6226 57.0242 20.6226Z" fill="black"/>
<path d="M58.8292 20.4949L58.5536 21.6123C58.812 21.1555 59.0095 20.8551 59.1463 20.7111C59.2845 20.567 59.4171 20.4949 59.5442 20.4949C59.6133 20.4949 59.6699 20.522 59.7141 20.576C59.7597 20.63 59.7825 20.7004 59.7825 20.7872C59.7825 20.8854 59.7625 21.0164 59.7224 21.1801L59.4696 22.214C59.4406 22.3335 59.4261 22.4063 59.4261 22.4325C59.4261 22.4554 59.4316 22.4751 59.4427 22.4915C59.4537 22.5062 59.4655 22.5136 59.4779 22.5136C59.4945 22.5136 59.5145 22.5029 59.538 22.4816C59.6112 22.4129 59.6913 22.3081 59.7784 22.1673L59.8426 22.214C59.7141 22.4317 59.5926 22.5872 59.4779 22.6805C59.3978 22.7444 59.3259 22.7763 59.2624 22.7763C59.2112 22.7763 59.1705 22.7575 59.1401 22.7198C59.1097 22.6838 59.0945 22.6347 59.0945 22.5725C59.0945 22.4939 59.118 22.3588 59.165 22.1673L59.4053 21.1801C59.4357 21.0573 59.4509 20.9615 59.4509 20.8928C59.4509 20.86 59.442 20.8338 59.424 20.8142C59.406 20.7929 59.3839 20.7823 59.3577 20.7823C59.319 20.7823 59.2727 20.8019 59.2188 20.8412C59.1166 20.9149 59.0102 21.0368 58.8997 21.2071C58.7892 21.3757 58.6724 21.5918 58.5495 21.8554C58.4845 21.9946 58.4307 22.1468 58.3878 22.3122L58.2842 22.7174H57.9734L58.3505 21.1801C58.3947 20.9951 58.4169 20.8838 58.4169 20.8461C58.4169 20.8101 58.4044 20.779 58.3796 20.7528C58.3561 20.725 58.3264 20.7111 58.2904 20.7111C58.2739 20.7111 58.2449 20.7143 58.2034 20.7209L58.1247 20.7356L58.1122 20.6472L58.8292 20.4949Z" fill="black"/>
<path d="M60.9637 19.52C61.0218 19.52 61.0708 19.5438 61.1109 19.5912C61.1509 19.6387 61.171 19.6968 61.171 19.7656C61.171 19.8327 61.1503 19.8908 61.1088 19.94C61.0687 19.9874 61.0204 20.0112 60.9637 20.0112C60.9071 20.0112 60.8581 19.9874 60.8166 19.94C60.7765 19.8908 60.7565 19.8327 60.7565 19.7656C60.7565 19.6968 60.7765 19.6387 60.8166 19.5912C60.8567 19.5438 60.9057 19.52 60.9637 19.52ZM60.9907 20.4949L60.5804 22.2164C60.5527 22.3326 60.5389 22.4022 60.5389 22.4251C60.5389 22.4513 60.5451 22.4726 60.5576 22.489C60.5714 22.5054 60.5873 22.5136 60.6052 22.5136C60.626 22.5136 60.6508 22.5005 60.6798 22.4743C60.7586 22.4006 60.838 22.2958 60.9182 22.1599L60.9907 22.2164C60.8967 22.3867 60.7862 22.5299 60.6591 22.6462C60.5652 22.7329 60.4754 22.7763 60.3897 22.7763C60.3331 22.7763 60.2868 22.7567 60.2509 22.7174C60.2149 22.6764 60.197 22.6257 60.197 22.5651C60.197 22.5045 60.2143 22.4039 60.2488 22.2631L60.5182 21.1629C60.5624 20.9828 60.5845 20.8699 60.5845 20.824C60.5845 20.788 60.5735 20.7585 60.5513 20.7356C60.5306 20.7127 60.5016 20.7012 60.4643 20.7012C60.4339 20.7012 60.3711 20.7102 60.2757 20.7282V20.6325L60.9907 20.4949Z" fill="black"/>
<path d="M62.1346 20.4949L61.9916 21.0598C62.1422 20.8502 62.2762 20.7037 62.3937 20.6202C62.5125 20.5367 62.6334 20.4949 62.7563 20.4949C62.8793 20.4949 62.9843 20.5531 63.0713 20.6693C63.1583 20.7839 63.2019 20.9337 63.2019 21.1187C63.2019 21.4789 63.0782 21.8456 62.8309 22.2189C62.5836 22.5905 62.2956 22.7763 61.9667 22.7763C61.8977 22.7763 61.8362 22.7673 61.7823 22.7493C61.7298 22.7313 61.6704 22.6994 61.6041 22.6535L61.4528 23.2871C61.4224 23.4115 61.4072 23.4926 61.4072 23.5302C61.4072 23.5662 61.4148 23.5965 61.43 23.6211C61.4466 23.6473 61.4728 23.6669 61.5088 23.68C61.5447 23.6948 61.6158 23.7021 61.7222 23.7021L61.7036 23.793H60.7275L60.7482 23.7021C60.8767 23.6956 60.9637 23.6694 61.0093 23.6235C61.0535 23.5777 61.1005 23.4508 61.1503 23.2429L61.6746 21.0917C61.7063 20.9558 61.7222 20.8715 61.7222 20.8388C61.7222 20.7945 61.7112 20.7602 61.6891 20.7356C61.6683 20.7111 61.6359 20.6988 61.5917 20.6988C61.5516 20.6988 61.4956 20.7045 61.4238 20.716V20.6202L62.1346 20.4949ZM61.6518 22.4595C61.7374 22.5807 61.8528 22.6413 61.9978 22.6413C62.0697 22.6413 62.1429 22.6175 62.2175 22.57C62.2921 22.5226 62.3646 22.4522 62.4351 22.3588C62.5069 22.2655 62.5712 22.1583 62.6278 22.0371C62.6845 21.9144 62.7349 21.7703 62.7791 21.6049C62.8247 21.4396 62.8475 21.2759 62.8475 21.1138C62.8475 20.9828 62.8219 20.883 62.7708 20.8142C62.7211 20.7438 62.6624 20.7086 62.5947 20.7086C62.4455 20.7086 62.2976 20.8101 62.1512 21.0131C62.0061 21.2161 61.8997 21.4535 61.8321 21.7253L61.6518 22.4595Z" fill="black"/>
<path d="M65.3094 20.4949L64.9053 22.1599L64.8597 22.3834C64.8556 22.4047 64.8535 22.4227 64.8535 22.4374C64.8535 22.4636 64.8604 22.4865 64.8742 22.5062C64.8853 22.5209 64.8991 22.5283 64.9157 22.5283C64.9336 22.5283 64.9571 22.5152 64.9861 22.489C65.04 22.4415 65.1118 22.3433 65.2017 22.1943L65.2721 22.2532C65.1768 22.4235 65.0787 22.5537 64.9778 22.6437C64.877 22.7321 64.7837 22.7763 64.6981 22.7763C64.6387 22.7763 64.5938 22.7583 64.5634 22.7223C64.5344 22.6879 64.5199 22.6372 64.5199 22.57C64.5199 22.4898 64.5351 22.3842 64.5655 22.2532L64.609 22.0691C64.428 22.349 64.2615 22.5447 64.1095 22.656C64.0004 22.7362 63.8933 22.7763 63.7883 22.7763C63.6875 22.7763 63.6004 22.7272 63.5272 22.629C63.454 22.5291 63.4174 22.3924 63.4174 22.2189C63.4174 21.9586 63.483 21.6843 63.6143 21.3962C63.7469 21.1064 63.9147 20.8748 64.1178 20.7012C64.2767 20.5637 64.4266 20.4949 64.5675 20.4949C64.6518 20.4949 64.7216 20.5211 64.7768 20.5735C64.8335 20.6259 64.8763 20.7127 64.9053 20.8338L64.9799 20.5539L65.3094 20.4949ZM64.5717 20.6226C64.4832 20.6226 64.3893 20.6718 64.2898 20.77C64.1489 20.9091 64.0232 21.1154 63.9127 21.3888C63.8035 21.6622 63.749 21.9094 63.749 22.1305C63.749 22.2418 63.7724 22.3302 63.8194 22.3957C63.8664 22.4595 63.9203 22.4915 63.9811 22.4915C64.1316 22.4915 64.2954 22.3597 64.4722 22.0961C64.7084 21.7457 64.8266 21.3864 64.8266 21.018C64.8266 20.8789 64.8038 20.7782 64.7582 20.716C64.7126 20.6538 64.6504 20.6226 64.5717 20.6226Z" fill="black"/>
<path d="M66.702 19.2253L65.9933 22.1477C65.9587 22.2934 65.9415 22.3826 65.9415 22.4153C65.9415 22.4399 65.9477 22.4603 65.9601 22.4767C65.9739 22.4931 65.9905 22.5013 66.0099 22.5013C66.0361 22.5013 66.0644 22.4874 66.0948 22.4595C66.1667 22.3924 66.242 22.2884 66.3207 22.1477L66.3829 22.2238C66.2516 22.4432 66.1307 22.5962 66.0202 22.683C65.9387 22.7452 65.8613 22.7763 65.7881 22.7763C65.7356 22.7763 65.6914 22.755 65.6555 22.7125C65.621 22.6699 65.6037 22.6208 65.6037 22.5651C65.6037 22.5062 65.6258 22.385 65.67 22.2017L66.2316 19.8982C66.2772 19.7099 66.3 19.6019 66.3 19.5741C66.3 19.5348 66.2869 19.5028 66.2606 19.4783C66.2344 19.4521 66.1936 19.439 66.1383 19.439C66.1066 19.439 66.0582 19.4447 65.9933 19.4562V19.3653L66.702 19.2253Z" fill="black"/>
<path d="M67.2388 19.272L67.3092 19.2253C67.4736 19.5953 67.591 19.9228 67.6615 20.2076C67.7182 20.4303 67.7465 20.6546 67.7465 20.8805C67.7465 21.4093 67.6435 21.8816 67.4377 22.2974C67.1835 22.8099 66.7739 23.3084 66.2088 23.793L66.1591 23.7169C66.4147 23.4909 66.6233 23.2396 66.7849 22.9629C66.9866 22.6159 67.1517 22.1968 67.2802 21.7056C67.4087 21.2128 67.4729 20.7651 67.4729 20.3623C67.4729 20.0546 67.3949 19.6911 67.2388 19.272Z" fill="black"/>
</svg>
